<svg width="116" height="22" viewBox="0 0 116 22" fill="none" xmlns="http://www.w3.org/2000/svg">
<path d="M6.436 4.238H9.154L10.486 8.324L11.818 4.238H14.554L12.376 10.178L13.672 13.58L16.876 4.22H20.098L15.112 17H12.556L10.486 11.996L8.434 17H5.86L0.892 4.22H4.096L7.318 13.58L8.578 10.178L6.436 4.238ZM30.7304 14.408V17H21.7484V4.22H30.5684V6.812H24.7004V9.296H29.7404V11.69H24.7004V14.408H30.7304ZM43.6298 13.724C43.6298 14.456 43.4318 15.068 43.0358 15.56C42.6518 16.04 42.1298 16.4 41.4698 16.64C40.8098 16.88 40.0838 17 39.2918 17H33.0638V4.22H40.1738C40.7738 4.22 41.2898 4.382 41.7218 4.706C42.1658 5.018 42.5018 5.426 42.7298 5.93C42.9698 6.434 43.0898 6.956 43.0898 7.496C43.0898 8.096 42.9338 8.672 42.6218 9.224C42.3098 9.764 41.8538 10.172 41.2538 10.448C41.9858 10.664 42.5618 11.048 42.9818 11.6C43.4138 12.152 43.6298 12.86 43.6298 13.724ZM40.6238 13.13C40.6238 12.854 40.5698 12.614 40.4618 12.41C40.3538 12.194 40.2098 12.026 40.0298 11.906C39.8618 11.774 39.6578 11.708 39.4178 11.708H36.0158V14.498H39.2918C39.5438 14.498 39.7658 14.438 39.9578 14.318C40.1618 14.198 40.3238 14.036 40.4438 13.832C40.5638 13.628 40.6238 13.394 40.6238 13.13ZM36.0158 6.74V9.386H38.9138C39.1298 9.386 39.3278 9.338 39.5078 9.242C39.6998 9.146 39.8558 9.002 39.9758 8.81C40.0958 8.606 40.1558 8.354 40.1558 8.054C40.1558 7.766 40.1018 7.526 39.9938 7.334C39.8978 7.142 39.7658 6.998 39.5978 6.902C39.4298 6.794 39.2378 6.74 39.0218 6.74H36.0158Z" fill="#4D5AE5"/>
<path d="M53.892 7.964C53.856 7.904 53.73 7.814 53.514 7.694C53.298 7.562 53.028 7.424 52.704 7.28C52.38 7.136 52.026 7.01 51.642 6.902C51.258 6.794 50.874 6.74 50.49 6.74C49.986 6.74 49.596 6.83 49.32 7.01C49.044 7.178 48.906 7.442 48.906 7.802C48.906 8.09 49.008 8.318 49.212 8.486C49.428 8.654 49.734 8.804 50.13 8.936C50.526 9.056 51.012 9.2 51.588 9.368C52.404 9.584 53.112 9.848 53.712 10.16C54.312 10.46 54.768 10.85 55.08 11.33C55.404 11.81 55.566 12.446 55.566 13.238C55.566 13.958 55.434 14.57 55.17 15.074C54.906 15.566 54.546 15.968 54.09 16.28C53.646 16.58 53.136 16.802 52.56 16.946C51.984 17.078 51.39 17.144 50.778 17.144C50.154 17.144 49.512 17.084 48.852 16.964C48.204 16.832 47.58 16.652 46.98 16.424C46.38 16.184 45.828 15.896 45.324 15.56L46.62 12.986C46.668 13.046 46.824 13.16 47.088 13.328C47.352 13.484 47.676 13.652 48.06 13.832C48.456 14 48.894 14.15 49.374 14.282C49.854 14.414 50.34 14.48 50.832 14.48C51.36 14.48 51.75 14.396 52.002 14.228C52.266 14.06 52.398 13.826 52.398 13.526C52.398 13.202 52.26 12.95 51.984 12.77C51.72 12.59 51.354 12.428 50.886 12.284C50.43 12.14 49.902 11.978 49.302 11.798C48.522 11.558 47.874 11.288 47.358 10.988C46.854 10.688 46.476 10.322 46.224 9.89C45.984 9.458 45.864 8.918 45.864 8.27C45.864 7.37 46.074 6.614 46.494 6.002C46.926 5.378 47.502 4.91 48.222 4.598C48.942 4.274 49.728 4.112 50.58 4.112C51.18 4.112 51.756 4.184 52.308 4.328C52.872 4.472 53.394 4.652 53.874 4.868C54.366 5.084 54.804 5.3 55.188 5.516L53.892 7.964ZM67.5762 6.812H63.6882V17H60.7362V6.812H56.8302V4.22H67.5762V6.812ZM75.0479 17.108C74.0279 17.108 73.1579 16.94 72.4379 16.604C71.7179 16.256 71.1299 15.788 70.6739 15.2C70.2299 14.6 69.8999 13.922 69.6839 13.166C69.4799 12.398 69.3779 11.594 69.3779 10.754V4.22H72.3299V10.754C72.3299 11.234 72.3779 11.702 72.4739 12.158C72.5699 12.602 72.7259 12.998 72.9419 13.346C73.1579 13.694 73.4339 13.97 73.7699 14.174C74.1179 14.378 74.5439 14.48 75.0479 14.48C75.5639 14.48 75.9959 14.378 76.3439 14.174C76.6919 13.958 76.9679 13.676 77.1719 13.328C77.3759 12.968 77.5259 12.566 77.6219 12.122C77.7179 11.678 77.7659 11.222 77.7659 10.754V4.22H80.7179V10.754C80.7179 11.642 80.6039 12.47 80.3759 13.238C80.1599 14.006 79.8239 14.684 79.3679 15.272C78.9119 15.848 78.3239 16.298 77.6039 16.622C76.8959 16.946 76.0439 17.108 75.0479 17.108ZM83.5452 17V4.22H88.3152C89.7192 4.22 90.8892 4.508 91.8252 5.084C92.7732 5.648 93.4872 6.416 93.9672 7.388C94.4472 8.348 94.6872 9.416 94.6872 10.592C94.6872 11.888 94.4232 13.016 93.8952 13.976C93.3672 14.936 92.6232 15.68 91.6632 16.208C90.7152 16.736 89.5992 17 88.3152 17H83.5452ZM91.6812 10.592C91.6812 9.848 91.5492 9.194 91.2852 8.63C91.0212 8.054 90.6372 7.61 90.1332 7.298C89.6292 6.974 89.0232 6.812 88.3152 6.812H86.4972V14.408H88.3152C89.0352 14.408 89.6412 14.246 90.1332 13.922C90.6372 13.586 91.0212 13.13 91.2852 12.554C91.5492 11.966 91.6812 11.312 91.6812 10.592ZM96.9699 17V4.22H99.9219V17H96.9699ZM108.504 17.108C107.544 17.108 106.674 16.928 105.894 16.568C105.126 16.196 104.46 15.704 103.896 15.092C103.344 14.468 102.918 13.772 102.618 13.004C102.318 12.224 102.168 11.42 102.168 10.592C102.168 9.74 102.324 8.93 102.636 8.162C102.96 7.394 103.404 6.71 103.968 6.11C104.544 5.498 105.222 5.018 106.002 4.67C106.782 4.322 107.634 4.148 108.558 4.148C109.506 4.148 110.364 4.334 111.132 4.706C111.912 5.066 112.578 5.558 113.13 6.182C113.694 6.806 114.126 7.508 114.426 8.288C114.726 9.056 114.876 9.842 114.876 10.646C114.876 11.498 114.72 12.308 114.408 13.076C114.096 13.844 113.652 14.534 113.076 15.146C112.5 15.746 111.822 16.226 111.042 16.586C110.274 16.934 109.428 17.108 108.504 17.108ZM105.174 10.628C105.174 11.12 105.246 11.6 105.39 12.068C105.534 12.524 105.744 12.932 106.02 13.292C106.308 13.652 106.662 13.94 107.082 14.156C107.502 14.372 107.982 14.48 108.522 14.48C109.086 14.48 109.578 14.372 109.998 14.156C110.418 13.928 110.766 13.628 111.042 13.256C111.318 12.884 111.522 12.47 111.654 12.014C111.798 11.546 111.87 11.072 111.87 10.592C111.87 10.1 111.798 9.626 111.654 9.17C111.51 8.714 111.294 8.306 111.006 7.946C110.718 7.574 110.364 7.286 109.944 7.082C109.524 6.878 109.05 6.776 108.522 6.776C107.958 6.776 107.466 6.884 107.046 7.1C106.638 7.316 106.29 7.61 106.002 7.982C105.726 8.342 105.516 8.756 105.372 9.224C105.24 9.68 105.174 10.148 105.174 10.628Z" fill="#F4F4FD"/>
</svg>
